<svg xmlns="http://www.w3.org/2000/svg" viewBox="0 0 100 100" width="100" height="100">
  <defs>
    <linearGradient id="bgGrad" x1="0%" y1="0%" x2="100%" y2="100%">
      <stop offset="0%" stop-color="#818cf8" />
      <stop offset="100%" stop-color="#4f46e5" />
    </linearGradient>
    <linearGradient id="shirtGrad" x1="0%" y1="0%" x2="0%" y2="100%">
      <stop offset="0%" stop-color="#38bdf8" />
      <stop offset="100%" stop-color="#0284c7" />
    </linearGradient>
  </defs>
  <!-- Background Circle -->
  <circle cx="50" cy="50" r="46" fill="url(#bgGrad)" />
  
  <!-- Face/Head -->
  <circle cx="50" cy="45" r="20" fill="#fde047" />
  
  <!-- Hair -->
  <path d="M30,42 C30,30 40,25 50,25 C60,25 70,30 70,42 C67,35 62,35 50,35 C38,35 33,35 30,42 Z" fill="#1e293b" />
  
  <!-- Eyes -->
  <circle cx="43" cy="45" r="2.5" fill="#1e293b" />
  <circle cx="57" cy="45" r="2.5" fill="#1e293b" />
  
  <!-- Smile -->
  <path d="M46,51 Q50,54 54,51" fill="none" stroke="#1e293b" stroke-width="2" stroke-linecap="round" />
  
  <!-- Shirt/Body -->
  <path d="M26,80 C26,68 36,62 50,62 C64,62 74,68 74,80 Z" fill="url(#shirtGrad)" />
  
  <!-- Hand pointing to self -->
  <path d="M44,68 C44,65 47,63 50,63 C53,63 56,65 56,68 L56,76 C56,79 53,81 50,81 C47,81 44,79 44,76 Z" fill="#fde047" />
  <path d="M50,63 L50,70" stroke="#eab308" stroke-width="2" stroke-linecap="round" />
</svg>
