<svg xmlns="http://www.w3.org/2000/svg" viewBox="0 0 100 100" width="100" height="100">
  <defs>
    <linearGradient id="bgGrad" x1="0%" y1="0%" x2="100%" y2="100%">
      <stop offset="0%" stop-color="#fb7185" />
      <stop offset="100%" stop-color="#e11d48" />
    </linearGradient>
  </defs>
  <!-- Background Circle -->
  <circle cx="50" cy="50" r="46" fill="url(#bgGrad)" />
  
  <!-- Glowing aura for heart -->
  <circle cx="50" cy="46" r="22" fill="#ffffff" opacity="0.15" />

  <!-- Big Red Heart ❤️ -->
  <path d="M50,65 C50,65 24,47 24,33 C24,23 32,15 42,15 C47,15 50,18 50,18 C50,18 53,15 58,15 C68,15 76,23 76,33 C76,47 50,65 50,65 Z" fill="#ffffff" />
  <path d="M50,61 C50,61 28,45 28,33 C28,25 35,19 43,19 C47,19 50,22 50,22 C50,22 53,19 57,19 C65,19 72,25 72,33 C72,45 50,61 50,61 Z" fill="#f43f5e" />

  <!-- Hands holding the heart from below -->
  <!-- Left Hand -->
  <path d="M22,78 C25,72 32,68 40,71 C44,72 47,75 48,78 C49,81 44,83 40,83 L24,83 C20,83 20,80 22,78 Z" fill="#fde047" />
  <!-- Right Hand -->
  <path d="M78,78 C75,72 68,68 60,71 C56,72 53,75 52,78 C51,81 56,83 60,83 L76,83 C80,83 80,80 78,78 Z" fill="#fde047" />

  <!-- Small star sparkles -->
  <polygon points="24,20 26,24 30,25 26,26 24,30 22,26 18,25 22,24" fill="#ffffff" />
  <polygon points="76,20 78,24 82,25 78,26 76,30 74,26 70,25 74,24" fill="#ffffff" />
</svg>
